<?xml version="1.0" encoding="UTF-8"?>
<!DOCTYPE svg PUBLIC "-//W3C//DTD SVG 1.1//EN" "http://www.w3.org/Graphics/SVG/1.1/DTD/svg11.dtd">
<!-- Creator: CorelDRAW X6 -->
<svg xmlns="http://www.w3.org/2000/svg" xml:space="preserve" width="70.9326mm" height="60.1578mm" version="1.1" style="shape-rendering:geometricPrecision; text-rendering:geometricPrecision; image-rendering:optimizeQuality; fill-rule:evenodd; clip-rule:evenodd"
viewBox="0 0 7093 6016"
 xmlns:xlink="http://www.w3.org/1999/xlink">
 <defs>
  <style type="text/css">
   <![CDATA[
    .fil7 {fill:#053644}
    .fil6 {fill:#062A40}
    .fil4 {fill:#0C4A57}
    .fil5 {fill:#0F1F38}
    .fil0 {fill:#197D8C}
    .fil3 {fill:#1D97AC}
    .fil2 {fill:#21AFC5}
    .fil1 {fill:#31C2D7}
    .fil8 {fill:#332C2B;fill-rule:nonzero}
   ]]>
  </style>
 </defs>
 <g id="algoux-full-l1">
  <metadata id="CorelCorpID_0Corel-Layer"/>
  <g id="_746025024">
   <polygon class="fil0" points="815,1783 1876,1312 2671,1145 2317,1783 "/>
   <polygon class="fil1" points="1805,0 2556,0 2045,615 815,1783 "/>
   <polygon class="fil2" points="2556,0 815,1783 2368,896 3307,0 "/>
   <polygon class="fil3" points="815,1783 2671,1145 3307,0 "/>
   <polygon class="fil4" points="815,1783 1876,2253 2671,2421 2317,1783 "/>
   <polygon class="fil5" points="1805,3566 2556,3566 2045,2951 815,1783 "/>
   <polygon class="fil6" points="2556,3566 815,1783 2368,2669 3307,3566 "/>
   <polygon class="fil7" points="815,1783 2671,2421 3307,3566 "/>
   <polygon class="fil2" points="1805,3566 3307,3566 5288,0 3786,0 "/>
   <polygon class="fil0" points="6279,1783 5217,2253 4422,2421 4777,1783 "/>
   <polygon class="fil1" points="5288,3566 4537,3566 5048,2951 6279,1783 "/>
   <polygon class="fil2" points="4537,3566 6279,1783 4725,2669 3786,3566 "/>
   <polygon class="fil3" points="6279,1783 4422,2421 3786,3566 "/>
   <polygon class="fil4" points="6279,1783 5217,1312 4422,1145 4777,1783 "/>
   <polygon class="fil5" points="5288,0 4537,0 5048,615 6279,1783 "/>
   <polygon class="fil6" points="4537,0 6279,1783 4725,896 3786,0 "/>
   <polygon class="fil7" points="6279,1783 4422,1145 3786,0 "/>
   <path class="fil8" d="M282 5667c-46,0 -88,-9 -128,-27 -49,-24 -87,-57 -114,-99 -26,-42 -40,-91 -40,-146 0,-7 0,-14 0,-22 2,-11 4,-19 4,-23 11,-79 45,-141 101,-186 46,-35 99,-52 159,-52l449 0 0 -51c0,-17 -2,-32 -7,-46 -5,-14 -14,-29 -29,-44 -14,-16 -32,-27 -51,-33 -20,-7 -47,-10 -80,-10l-480 0 0 -209 412 0 74 0c25,0 45,0 59,0 14,0 34,2 60,5 59,10 104,23 136,39 32,16 61,40 88,71 26,31 47,72 61,121 6,20 11,41 14,60 3,20 5,47 5,80l0 32 0 540 -691 0zm431 -377l-329 0c-30,0 -56,9 -79,28 -22,19 -33,40 -33,64 0,23 10,41 29,54l23 13c20,7 37,11 51,11l338 0 0 -170zm495 377l0 -1300 260 0 0 1300 -260 0zm1482 43c0,12 -1,24 -3,37 -2,13 -5,27 -10,44 -11,35 -23,62 -35,82 -13,20 -33,43 -62,69 -53,49 -134,74 -242,74l-551 0 0 -195 464 0c42,0 69,-1 83,-4 13,-2 28,-10 43,-23l14 -12c14,-16 25,-31 32,-47 4,-8 5,-14 5,-16l0 -52 -337 0c-97,0 -183,-36 -257,-106 -78,-75 -125,-171 -140,-291 -4,-24 -5,-48 -5,-70 0,-23 3,-53 8,-91 5,-38 17,-79 36,-123 19,-44 42,-83 71,-118 88,-100 192,-150 312,-150l573 0 0 930 0 34 0 29zm-260 -783l-227 0c-59,0 -109,25 -152,74 -42,49 -64,113 -64,190 0,20 2,43 5,67 23,135 101,202 234,202l203 0 0 -532zm1505 578c-47,60 -116,106 -208,136 -91,31 -202,46 -332,46 -158,-13 -277,-66 -359,-157 -82,-91 -123,-211 -123,-359 0,-128 43,-233 128,-316 85,-83 200,-133 345,-150 36,-4 70,-5 103,-5 141,0 256,34 347,103 90,69 148,163 173,283 5,19 8,42 11,69 2,26 4,50 4,70 0,54 -8,105 -23,153 -15,48 -37,90 -66,127zm-424 -601c-22,-2 -39,-4 -51,-4 -76,0 -138,26 -188,78 -49,52 -74,120 -74,206l0 52c10,73 34,132 73,176 39,44 89,71 151,80 20,4 39,5 54,5 80,0 143,-29 189,-87 46,-58 69,-137 69,-236 0,-73 -21,-134 -62,-183 -42,-49 -95,-78 -162,-88zm1386 789c-214,0 -377,-41 -487,-124 -111,-82 -166,-195 -166,-337l0 -864 300 0 0 812c0,91 32,161 97,211 64,50 159,75 282,75 110,0 189,-24 239,-71 50,-48 75,-119 75,-214l0 -812 298 0 0 878c0,148 -48,258 -144,331 -103,77 -268,116 -493,116zm1819 -25l-332 -435 -307 435 -386 0 505 -644 -495 -655 388 0 296 431 318 -431 377 0 -498 650 511 650 -377 0z"/>
  </g>
 </g>
</svg>
